<svg xmlns="http://www.w3.org/2000/svg" viewBox="0 0 29.75 34">
  <title>delete</title>
  <g id="Layer_2" data-name="Layer 2">
    <g id="Screen_2" data-name="Screen 2">
      <path d="M0,3.71875A1.53823,1.53823,0,0,1,.46484,2.58984,1.53823,1.53823,0,0,1,1.59375,2.125h7.4375L9.62891.86328a1.49314,1.49314,0,0,1,.59765-.63086A1.68142,1.68142,0,0,1,11.08984,0h7.57032a1.68142,1.68142,0,0,1,.86328.23242,1.49314,1.49314,0,0,1,.59765.63086L20.71875,2.125h7.4375A1.58711,1.58711,0,0,1,29.75,3.71875V5.57813a.79356.79356,0,0,1-.79687.79687H.79688a.76726.76726,0,0,1-.56446-.23242A.76725.76725,0,0,1,0,5.57813Zm26.23047,27.293a3.0128,3.0128,0,0,1-.99609,2.125A3.11715,3.11715,0,0,1,23.043,34H6.707a3.11711,3.11711,0,0,1-2.1914-.86328,3.01278,3.01278,0,0,1-.9961-2.125L2.19141,9.36328a.88129.88129,0,0,1,.23242-.59765A.72431.72431,0,0,1,2.98828,8.5H26.76172a.72431.72431,0,0,1,.56445.26563.88129.88129,0,0,1,.23242.59765Z" fill="#f73c3c"/>
    </g>
  </g>
</svg>
