<svg xmlns="http://www.w3.org/2000/svg" viewBox="0 0 42.99805 42.99805">
  <title>more</title>
  <g id="Layer_2" data-name="Layer 2">
    <g id="Screen_2" data-name="Screen 2">
      <path d="M39.92676,16.89209a3.114,3.114,0,0,1,3.07129,3.07129v3.07129A3.114,3.114,0,0,1,39.92676,26.106H26.106v13.8208a3.114,3.114,0,0,1-3.07129,3.07129H19.96338a3.114,3.114,0,0,1-3.07129-3.07129V26.106H3.07129a2.95126,2.95126,0,0,1-2.1595-.91179A2.95128,2.95128,0,0,1,0,23.03467V19.96338a2.95126,2.95126,0,0,1,.91179-2.1595,2.95126,2.95126,0,0,1,2.1595-.91179h13.8208V3.07129a2.95126,2.95126,0,0,1,.91179-2.1595A2.95126,2.95126,0,0,1,19.96338,0h3.07129a2.95128,2.95128,0,0,1,2.1595.91179,2.95126,2.95126,0,0,1,.91179,2.1595v13.8208Z" fill="#fff"/>
    </g>
  </g>
</svg>
