<svg preserveAspectRatio="none" id="Fundo" xmlns="http://www.w3.org/2000/svg" xmlns:xlink="http://www.w3.org/1999/xlink" viewBox="0 0 1366 768"><defs><style>.cls-1{fill:url(#linear-gradient);}.cls-2{fill:url(#linear-gradient-2);}.cls-3{fill:url(#linear-gradient-3);}</style><linearGradient id="linear-gradient" y1="1250.5" x2="1366" y2="1250.5" gradientUnits="userSpaceOnUse"><stop offset="0" stop-color="#4f36c2"/><stop offset="1" stop-color="#ee4cff"/></linearGradient><linearGradient id="linear-gradient-2" y1="460.5" x2="1366" y2="460.5" gradientUnits="userSpaceOnUse"><stop offset="0" stop-color="#ee4cff"/><stop offset="0.11" stop-color="#e047ff"/><stop offset="0.32" stop-color="#bb39ff"/><stop offset="0.51" stop-color="#932aff"/><stop offset="0.74" stop-color="#5e17ff"/><stop offset="1" stop-color="#1f00ff"/></linearGradient><linearGradient id="linear-gradient-3" y1="-260" x2="1366" y2="-260" gradientUnits="userSpaceOnUse"><stop offset="0" stop-color="#6cbdff"/><stop offset="0.12" stop-color="#66afff"/><stop offset="0.34" stop-color="#578aff"/><stop offset="0.64" stop-color="#3f4eff"/><stop offset="0.95" stop-color="#240cff"/><stop offset="1" stop-color="#1f00ff"/></linearGradient></defs><title>bg_2</title><path class="cls-1" d="M68.35,1467.53c123,41.07,263,12.55,391.64,37.77,97.37,19.09,182.83,67.76,266.5,114.74s170.76,94.13,269,109.46c110.4,17.23,277.6-30.52,370.49-113.63V768H0v667.28A319.71,319.71,0,0,0,68.35,1467.53Z"/><path class="cls-2" d="M0-86V990.86c102.3,25.24,218.28,17.45,325.29,0,124.87-20.35,247.24-52.78,375.1-57,157-5.19,316.82,32.44,469.6,5.7,74.13-13,140.77-41.1,196-78.84V-86Z"/><path class="cls-3" d="M68.35-31.5c123,43.24,263,13.22,391.64,39.77,97.37,20.09,182.83,71.34,266.5,120.8s170.76,99.1,269,115.25c110.4,18.14,277.6-32.13,370.49-119.63V-768H0V-65.46A312.69,312.69,0,0,0,68.35-31.5Z"/></svg>