<svg preserveAspectRatio="none" id="Fundo" xmlns="http://www.w3.org/2000/svg" xmlns:xlink="http://www.w3.org/1999/xlink" viewBox="0 0 1366 768"><defs><style>.cls-1{fill:url(#linear-gradient);}.cls-2{fill:url(#linear-gradient-2);}.cls-3{fill:url(#linear-gradient-3);}</style><linearGradient id="linear-gradient" y1="1201" x2="1366" y2="1201" gradientUnits="userSpaceOnUse"><stop offset="0" stop-color="#4f36c2"/><stop offset="1" stop-color="#00eaf7"/></linearGradient><linearGradient id="linear-gradient-2" y1="482.5" x2="1366" y2="482.5" gradientUnits="userSpaceOnUse"><stop offset="0" stop-color="#4f36c2"/><stop offset="1" stop-color="#ee4cff"/></linearGradient><linearGradient id="linear-gradient-3" y1="-307.5" x2="1366" y2="-307.5" gradientUnits="userSpaceOnUse"><stop offset="0" stop-color="#ee4cff"/><stop offset="0.11" stop-color="#e047ff"/><stop offset="0.32" stop-color="#bb39ff"/><stop offset="0.51" stop-color="#932aff"/><stop offset="0.74" stop-color="#5e17ff"/><stop offset="1" stop-color="#1f00ff"/></linearGradient></defs><title>bg_3</title><path class="cls-1" d="M0,645V1740.58c102.3,25.67,218.28,17.75,325.29,0,124.87-20.69,247.24-53.69,375.1-58,157-5.27,316.82,33,469.6,5.81,74.13-13.2,140.77-41.81,196-80.22V645Z"/><path class="cls-2" d="M68.35,699.53c123,41.07,263,12.55,391.64,37.77,97.37,19.09,182.83,67.76,266.5,114.74s170.76,94.13,269,109.46c110.4,17.23,277.6-30.52,370.49-113.63V0H0V667.28A319.71,319.71,0,0,0,68.35,699.53Z"/><path class="cls-3" d="M0-854V222.86c102.3,25.24,218.28,17.45,325.29,0,124.87-20.35,247.24-52.78,375.1-57,157-5.19,316.82,32.44,469.6,5.7,74.13-13,140.77-41.1,196-78.84V-854Z"/></svg>