<svg preserveAspectRatio="none" id="Fundo" xmlns="http://www.w3.org/2000/svg" xmlns:xlink="http://www.w3.org/1999/xlink" viewBox="0 0 1366 768"><defs><style>.cls-1{fill:url(#linear-gradient);}.cls-2{fill:url(#linear-gradient-2);}</style><linearGradient id="linear-gradient" y1="433" x2="1366" y2="433" gradientUnits="userSpaceOnUse"><stop offset="0" stop-color="#4f36c2"/><stop offset="1" stop-color="#00eaf7"/></linearGradient><linearGradient id="linear-gradient-2" y1="-285.5" x2="1366" y2="-285.5" gradientUnits="userSpaceOnUse"><stop offset="0" stop-color="#4f36c2"/><stop offset="1" stop-color="#ee4cff"/></linearGradient></defs><title>bg_4</title><path class="cls-1" d="M0-123V972.58c102.3,25.67,218.28,17.75,325.29,0,124.87-20.69,247.24-53.69,375.1-58,157-5.27,316.82,33,469.6,5.81,74.13-13.2,140.77-41.81,196-80.22V-123Z"/><path class="cls-2" d="M68.35-68.47c123,41.07,263,12.55,391.64,37.77C557.36-11.61,642.82,37.06,726.49,84s170.76,94.13,269,109.46C1105.91,210.73,1273.11,163,1366,79.87V-768H0v667.28A319.71,319.71,0,0,0,68.35-68.47Z"/></svg>