<svg preserveAspectRatio="none" id="Fundo" xmlns="http://www.w3.org/2000/svg" xmlns:xlink="http://www.w3.org/1999/xlink" viewBox="0 0 1366 768"><defs><style>.cls-1{fill:url(#linear-gradient);}.cls-2{fill:url(#linear-gradient-2);}.cls-3{fill:url(#linear-gradient-3);}</style><linearGradient id="linear-gradient" y1="1081.5" x2="1366" y2="1081.5" gradientUnits="userSpaceOnUse"><stop offset="0" stop-color="#00d99a"/><stop offset="1" stop-color="#932aff"/></linearGradient><linearGradient id="linear-gradient-2" x1="14244.6" y1="498.02" x2="15610.6" y2="498.02" gradientTransform="matrix(-1, 0, 0, 1, 15610.6, 0)" gradientUnits="userSpaceOnUse"><stop offset="0" stop-color="#4f36c2"/><stop offset="1" stop-color="#ee4cff"/></linearGradient><linearGradient id="linear-gradient-3" y1="-335" x2="1366" y2="-335" gradientUnits="userSpaceOnUse"><stop offset="0" stop-color="#4f36c2"/><stop offset="1" stop-color="#00eaf7"/></linearGradient></defs><title>bg_5</title><rect class="cls-1" y="627" width="1366" height="909"/><path class="cls-2" d="M1297.65,685.31c-123,38.47-263,11.76-391.64,35.38-97.37,17.88-182.83,63.48-266.5,107.49s-180.65,104-278.9,118.33C250.2,962.66,92.89,992.93,0,915.07V30H1366V655.1A329.82,329.82,0,0,1,1297.65,685.31Z"/><path class="cls-3" d="M0-891V204.58c102.3,25.67,218.28,17.75,325.29,0,124.87-20.69,247.24-53.69,375.1-58,157-5.27,316.82,33,469.6,5.81,74.13-13.2,140.77-41.81,196-80.22V-891Z"/></svg>